<mxfile host="app.diagrams.net" agent="Mozilla/5.0 (Windows NT 10.0; Win64; x64) AppleWebKit/537.36 (KHTML, like Gecko) Chrome/138.0.0.0 Safari/537.36 Edg/138.0.0.0" version="28.0.7">
  <diagram name="Page-1" id="l9hW8MwYD4k0rRs-Sbh3">
    <mxGraphModel dx="2123" dy="1704" grid="1" gridSize="10" guides="1" tooltips="1" connect="1" arrows="1" fold="1" page="1" pageScale="1" pageWidth="850" pageHeight="1100" math="0" shadow="0">
      <root>
        <mxCell id="0" />
        <mxCell id="1" parent="0" />
        <mxCell id="aZiC9IOcHN_K4GmecqXq-19" style="edgeStyle=orthogonalEdgeStyle;rounded=0;orthogonalLoop=1;jettySize=auto;html=1;exitX=1;exitY=0.5;exitDx=0;exitDy=0;" edge="1" parent="1">
          <mxGeometry relative="1" as="geometry">
            <mxPoint x="560" y="140" as="sourcePoint" />
            <mxPoint x="750" y="250" as="targetPoint" />
          </mxGeometry>
        </mxCell>
        <mxCell id="aZiC9IOcHN_K4GmecqXq-120" style="edgeStyle=orthogonalEdgeStyle;rounded=0;orthogonalLoop=1;jettySize=auto;html=1;exitX=0.5;exitY=1;exitDx=0;exitDy=0;entryX=0.5;entryY=0;entryDx=0;entryDy=0;" edge="1" parent="1" source="aZiC9IOcHN_K4GmecqXq-27" target="aZiC9IOcHN_K4GmecqXq-119">
          <mxGeometry relative="1" as="geometry" />
        </mxCell>
        <mxCell id="aZiC9IOcHN_K4GmecqXq-27" value="&lt;font style=&quot;font-size: 18px;&quot;&gt;Booking { Verify }&lt;/font&gt;" style="swimlane;whiteSpace=wrap;html=1;startSize=23;" vertex="1" parent="1">
          <mxGeometry x="800" y="870" width="280" height="180" as="geometry" />
        </mxCell>
        <mxCell id="aZiC9IOcHN_K4GmecqXq-28" value="&lt;font style=&quot;font-size: 18px;&quot;&gt;Trip_id&lt;/font&gt;" style="text;html=1;align=center;verticalAlign=middle;resizable=0;points=[];autosize=1;strokeColor=none;fillColor=none;" vertex="1" parent="aZiC9IOcHN_K4GmecqXq-27">
          <mxGeometry x="45" y="40" width="80" height="40" as="geometry" />
        </mxCell>
        <mxCell id="aZiC9IOcHN_K4GmecqXq-29" value="&lt;font style=&quot;font-size: 18px;&quot;&gt;User_id&lt;/font&gt;" style="text;html=1;align=center;verticalAlign=middle;resizable=0;points=[];autosize=1;strokeColor=none;fillColor=none;" vertex="1" parent="aZiC9IOcHN_K4GmecqXq-27">
          <mxGeometry x="45" y="80" width="90" height="40" as="geometry" />
        </mxCell>
        <mxCell id="aZiC9IOcHN_K4GmecqXq-30" value="&lt;font style=&quot;font-size: 18px;&quot;&gt;Payment_id&lt;/font&gt;" style="text;html=1;align=center;verticalAlign=middle;resizable=0;points=[];autosize=1;strokeColor=none;fillColor=none;" vertex="1" parent="aZiC9IOcHN_K4GmecqXq-27">
          <mxGeometry x="45" y="120" width="120" height="40" as="geometry" />
        </mxCell>
        <mxCell id="aZiC9IOcHN_K4GmecqXq-31" value="&lt;font style=&quot;font-size: 18px;&quot;&gt;Trips&lt;/font&gt;" style="swimlane;whiteSpace=wrap;html=1;startSize=23;" vertex="1" parent="1">
          <mxGeometry x="-15" y="318" width="200" height="200" as="geometry" />
        </mxCell>
        <mxCell id="aZiC9IOcHN_K4GmecqXq-32" value="&lt;font style=&quot;font-size: 18px;&quot;&gt;Prize&lt;/font&gt;" style="text;html=1;align=center;verticalAlign=middle;resizable=0;points=[];autosize=1;strokeColor=none;fillColor=none;" vertex="1" parent="aZiC9IOcHN_K4GmecqXq-31">
          <mxGeometry x="40" y="40" width="60" height="40" as="geometry" />
        </mxCell>
        <mxCell id="aZiC9IOcHN_K4GmecqXq-33" value="&lt;font style=&quot;font-size: 18px;&quot;&gt;Destination&lt;/font&gt;" style="text;html=1;align=center;verticalAlign=middle;resizable=0;points=[];autosize=1;strokeColor=none;fillColor=none;" vertex="1" parent="aZiC9IOcHN_K4GmecqXq-31">
          <mxGeometry x="40" y="80" width="110" height="40" as="geometry" />
        </mxCell>
        <mxCell id="aZiC9IOcHN_K4GmecqXq-34" value="&lt;font style=&quot;font-size: 18px;&quot;&gt;Date &amp;amp; Time&lt;/font&gt;" style="text;html=1;align=center;verticalAlign=middle;resizable=0;points=[];autosize=1;strokeColor=none;fillColor=none;" vertex="1" parent="aZiC9IOcHN_K4GmecqXq-31">
          <mxGeometry x="40" y="120" width="120" height="40" as="geometry" />
        </mxCell>
        <mxCell id="aZiC9IOcHN_K4GmecqXq-42" style="edgeStyle=orthogonalEdgeStyle;rounded=0;orthogonalLoop=1;jettySize=auto;html=1;entryX=0.5;entryY=0;entryDx=0;entryDy=0;exitX=0;exitY=0.5;exitDx=0;exitDy=0;" edge="1" parent="1" source="aZiC9IOcHN_K4GmecqXq-64" target="aZiC9IOcHN_K4GmecqXq-38">
          <mxGeometry relative="1" as="geometry" />
        </mxCell>
        <mxCell id="aZiC9IOcHN_K4GmecqXq-43" style="edgeStyle=orthogonalEdgeStyle;rounded=0;orthogonalLoop=1;jettySize=auto;html=1;exitX=0;exitY=0.5;exitDx=0;exitDy=0;" edge="1" parent="1" source="aZiC9IOcHN_K4GmecqXq-35" target="aZiC9IOcHN_K4GmecqXq-31">
          <mxGeometry relative="1" as="geometry">
            <mxPoint x="110" y="140" as="targetPoint" />
          </mxGeometry>
        </mxCell>
        <mxCell id="aZiC9IOcHN_K4GmecqXq-35" value="&lt;font style=&quot;font-size: 18px;&quot;&gt;User&amp;nbsp; { Role : Passanger }&lt;/font&gt;" style="swimlane;whiteSpace=wrap;html=1;startSize=23;" vertex="1" parent="1">
          <mxGeometry x="300" y="40" width="260" height="200" as="geometry" />
        </mxCell>
        <mxCell id="aZiC9IOcHN_K4GmecqXq-36" value="Actor" style="shape=umlActor;verticalLabelPosition=bottom;verticalAlign=top;html=1;outlineConnect=0;" vertex="1" parent="aZiC9IOcHN_K4GmecqXq-35">
          <mxGeometry x="92.5" y="50" width="75" height="120" as="geometry" />
        </mxCell>
        <mxCell id="aZiC9IOcHN_K4GmecqXq-38" value="&lt;font style=&quot;font-size: 18px;&quot;&gt;Booking&amp;nbsp; { Manual }&lt;/font&gt;" style="swimlane;whiteSpace=wrap;html=1;startSize=23;" vertex="1" parent="1">
          <mxGeometry x="260" y="530" width="310" height="200" as="geometry" />
        </mxCell>
        <mxCell id="aZiC9IOcHN_K4GmecqXq-39" value="&lt;font style=&quot;font-size: 18px;&quot;&gt;Trip_id&lt;/font&gt;" style="text;html=1;align=center;verticalAlign=middle;resizable=0;points=[];autosize=1;strokeColor=none;fillColor=none;" vertex="1" parent="aZiC9IOcHN_K4GmecqXq-38">
          <mxGeometry x="45" y="40" width="80" height="40" as="geometry" />
        </mxCell>
        <mxCell id="aZiC9IOcHN_K4GmecqXq-40" value="&lt;font style=&quot;font-size: 18px;&quot;&gt;User_id&lt;/font&gt;" style="text;html=1;align=center;verticalAlign=middle;resizable=0;points=[];autosize=1;strokeColor=none;fillColor=none;" vertex="1" parent="aZiC9IOcHN_K4GmecqXq-38">
          <mxGeometry x="45" y="80" width="90" height="40" as="geometry" />
        </mxCell>
        <mxCell id="aZiC9IOcHN_K4GmecqXq-41" value="&lt;span style=&quot;font-size: 18px;&quot;&gt;proof URL&lt;/span&gt;" style="text;html=1;align=center;verticalAlign=middle;resizable=0;points=[];autosize=1;strokeColor=none;fillColor=none;" vertex="1" parent="aZiC9IOcHN_K4GmecqXq-38">
          <mxGeometry x="45" y="120" width="110" height="40" as="geometry" />
        </mxCell>
        <mxCell id="aZiC9IOcHN_K4GmecqXq-72" value="&lt;font style=&quot;font-size: 18px;&quot;&gt;Status&lt;/font&gt;" style="text;html=1;align=center;verticalAlign=middle;resizable=0;points=[];autosize=1;strokeColor=none;fillColor=none;" vertex="1" parent="aZiC9IOcHN_K4GmecqXq-38">
          <mxGeometry x="50" y="153" width="70" height="40" as="geometry" />
        </mxCell>
        <mxCell id="aZiC9IOcHN_K4GmecqXq-45" value="&lt;font style=&quot;font-size: 18px;&quot;&gt;GET&amp;nbsp;&amp;nbsp;&lt;/font&gt;&lt;span style=&quot;font-size: 18px; background-color: transparent; color: light-dark(rgb(0, 0, 0), rgb(255, 255, 255));&quot;&gt;/trips&amp;nbsp;&lt;/span&gt;" style="text;html=1;align=center;verticalAlign=middle;resizable=0;points=[];autosize=1;strokeColor=none;fillColor=none;" vertex="1" parent="1">
          <mxGeometry x="30" y="270" width="110" height="40" as="geometry" />
        </mxCell>
        <mxCell id="aZiC9IOcHN_K4GmecqXq-46" value="&lt;font style=&quot;font-size: 18px;&quot;&gt;POST /&lt;/font&gt;&lt;span style=&quot;font-size: 18px; background-color: transparent; color: light-dark(rgb(0, 0, 0), rgb(255, 255, 255));&quot;&gt;Order_api&lt;/span&gt;" style="text;html=1;align=center;verticalAlign=middle;resizable=0;points=[];autosize=1;strokeColor=none;fillColor=none;" vertex="1" parent="1">
          <mxGeometry x="750" y="500" width="160" height="40" as="geometry" />
        </mxCell>
        <mxCell id="aZiC9IOcHN_K4GmecqXq-47" value="&lt;font style=&quot;font-size: 18px;&quot;&gt;Razorpay&amp;nbsp; &amp;nbsp; { Gateway}&lt;/font&gt;" style="swimlane;whiteSpace=wrap;html=1;startSize=23;" vertex="1" parent="1">
          <mxGeometry x="790" y="540" width="280" height="200" as="geometry" />
        </mxCell>
        <mxCell id="aZiC9IOcHN_K4GmecqXq-48" value="&lt;font style=&quot;font-size: 18px;&quot;&gt;Prize&lt;/font&gt;" style="text;html=1;align=center;verticalAlign=middle;resizable=0;points=[];autosize=1;strokeColor=none;fillColor=none;" vertex="1" parent="aZiC9IOcHN_K4GmecqXq-47">
          <mxGeometry x="25" y="30" width="60" height="40" as="geometry" />
        </mxCell>
        <mxCell id="aZiC9IOcHN_K4GmecqXq-49" value="&lt;font style=&quot;font-size: 18px;&quot;&gt;User_id&amp;nbsp;&lt;/font&gt;" style="text;html=1;align=center;verticalAlign=middle;resizable=0;points=[];autosize=1;strokeColor=none;fillColor=none;" vertex="1" parent="aZiC9IOcHN_K4GmecqXq-47">
          <mxGeometry x="20" y="70" width="90" height="40" as="geometry" />
        </mxCell>
        <mxCell id="aZiC9IOcHN_K4GmecqXq-61" value="&lt;font style=&quot;font-size: 18px;&quot;&gt;&amp;nbsp; API_KEY&lt;/font&gt;&lt;div&gt;&lt;font size=&quot;3&quot;&gt;&amp;nbsp;Secre_key&lt;/font&gt;&lt;/div&gt;" style="text;html=1;align=center;verticalAlign=middle;resizable=0;points=[];autosize=1;strokeColor=none;fillColor=none;" vertex="1" parent="aZiC9IOcHN_K4GmecqXq-47">
          <mxGeometry x="10" y="120" width="110" height="50" as="geometry" />
        </mxCell>
        <mxCell id="aZiC9IOcHN_K4GmecqXq-60" value="&amp;nbsp;" style="text;html=1;align=center;verticalAlign=middle;resizable=0;points=[];autosize=1;strokeColor=none;fillColor=none;" vertex="1" parent="aZiC9IOcHN_K4GmecqXq-47">
          <mxGeometry x="40" y="30" width="30" height="30" as="geometry" />
        </mxCell>
        <mxCell id="aZiC9IOcHN_K4GmecqXq-55" style="edgeStyle=orthogonalEdgeStyle;rounded=0;orthogonalLoop=1;jettySize=auto;html=1;exitX=0.5;exitY=1;exitDx=0;exitDy=0;entryX=0.466;entryY=0;entryDx=0;entryDy=0;entryPerimeter=0;" edge="1" parent="1" source="aZiC9IOcHN_K4GmecqXq-47" target="aZiC9IOcHN_K4GmecqXq-27">
          <mxGeometry relative="1" as="geometry" />
        </mxCell>
        <mxCell id="aZiC9IOcHN_K4GmecqXq-57" value="&amp;nbsp;" style="text;html=1;align=center;verticalAlign=middle;resizable=0;points=[];autosize=1;strokeColor=none;fillColor=none;" vertex="1" parent="1">
          <mxGeometry x="425" y="288" width="30" height="30" as="geometry" />
        </mxCell>
        <mxCell id="aZiC9IOcHN_K4GmecqXq-58" value="&lt;font style=&quot;font-size: 18px;&quot;&gt;POST /manual_booking&lt;/font&gt;" style="text;html=1;align=center;verticalAlign=middle;resizable=0;points=[];autosize=1;strokeColor=none;fillColor=none;" vertex="1" parent="1">
          <mxGeometry x="420" y="490" width="210" height="40" as="geometry" />
        </mxCell>
        <mxCell id="aZiC9IOcHN_K4GmecqXq-63" style="edgeStyle=orthogonalEdgeStyle;rounded=0;orthogonalLoop=1;jettySize=auto;html=1;entryX=0.5;entryY=0;entryDx=0;entryDy=0;" edge="1" parent="1" source="aZiC9IOcHN_K4GmecqXq-65" target="aZiC9IOcHN_K4GmecqXq-47">
          <mxGeometry relative="1" as="geometry" />
        </mxCell>
        <mxCell id="aZiC9IOcHN_K4GmecqXq-62" value="Use Case" style="ellipse;whiteSpace=wrap;html=1;" vertex="1" parent="1">
          <mxGeometry x="670" y="250" width="140" height="80" as="geometry" />
        </mxCell>
        <mxCell id="aZiC9IOcHN_K4GmecqXq-65" value="&lt;font style=&quot;font-size: 14px;&quot;&gt;Gateway&lt;/font&gt;" style="text;html=1;align=center;verticalAlign=middle;resizable=0;points=[];autosize=1;strokeColor=none;fillColor=none;" vertex="1" parent="1">
          <mxGeometry x="890" y="420" width="80" height="30" as="geometry" />
        </mxCell>
        <mxCell id="aZiC9IOcHN_K4GmecqXq-64" value="&lt;font style=&quot;font-size: 14px;&quot;&gt;Manual&lt;/font&gt;" style="text;html=1;align=center;verticalAlign=middle;resizable=0;points=[];autosize=1;strokeColor=none;fillColor=none;" vertex="1" parent="1">
          <mxGeometry x="440" y="275" width="70" height="30" as="geometry" />
        </mxCell>
        <mxCell id="aZiC9IOcHN_K4GmecqXq-68" style="edgeStyle=orthogonalEdgeStyle;rounded=0;orthogonalLoop=1;jettySize=auto;html=1;entryX=0.997;entryY=0.513;entryDx=0;entryDy=0;entryPerimeter=0;" edge="1" parent="1" source="aZiC9IOcHN_K4GmecqXq-62" target="aZiC9IOcHN_K4GmecqXq-64">
          <mxGeometry relative="1" as="geometry" />
        </mxCell>
        <mxCell id="aZiC9IOcHN_K4GmecqXq-69" style="edgeStyle=orthogonalEdgeStyle;rounded=0;orthogonalLoop=1;jettySize=auto;html=1;entryX=0.5;entryY=0;entryDx=0;entryDy=0;entryPerimeter=0;" edge="1" parent="1" source="aZiC9IOcHN_K4GmecqXq-62" target="aZiC9IOcHN_K4GmecqXq-65">
          <mxGeometry relative="1" as="geometry" />
        </mxCell>
        <mxCell id="aZiC9IOcHN_K4GmecqXq-73" style="edgeStyle=orthogonalEdgeStyle;rounded=0;orthogonalLoop=1;jettySize=auto;html=1;entryX=0;entryY=0.5;entryDx=0;entryDy=0;" edge="1" parent="1" source="aZiC9IOcHN_K4GmecqXq-70" target="aZiC9IOcHN_K4GmecqXq-38">
          <mxGeometry relative="1" as="geometry">
            <mxPoint x="160" y="640" as="targetPoint" />
          </mxGeometry>
        </mxCell>
        <mxCell id="aZiC9IOcHN_K4GmecqXq-70" value="&lt;font style=&quot;font-size: 18px;&quot;&gt;User&amp;nbsp; { Role : Admin }&lt;/font&gt;" style="swimlane;whiteSpace=wrap;html=1;startSize=23;" vertex="1" parent="1">
          <mxGeometry x="30" y="870" width="260" height="200" as="geometry" />
        </mxCell>
        <mxCell id="aZiC9IOcHN_K4GmecqXq-71" value="Actor" style="shape=umlActor;verticalLabelPosition=bottom;verticalAlign=top;html=1;outlineConnect=0;" vertex="1" parent="aZiC9IOcHN_K4GmecqXq-70">
          <mxGeometry x="92.5" y="50" width="75" height="120" as="geometry" />
        </mxCell>
        <mxCell id="aZiC9IOcHN_K4GmecqXq-74" value="&lt;font style=&quot;font-size: 18px;&quot;&gt;&amp;nbsp; &amp;nbsp; &amp;nbsp; &amp;nbsp;POST&amp;nbsp; /verify_manual&lt;/font&gt;" style="text;html=1;align=center;verticalAlign=middle;resizable=0;points=[];autosize=1;strokeColor=none;fillColor=none;" vertex="1" parent="1">
          <mxGeometry y="590" width="230" height="40" as="geometry" />
        </mxCell>
        <mxCell id="aZiC9IOcHN_K4GmecqXq-79" style="edgeStyle=orthogonalEdgeStyle;rounded=0;orthogonalLoop=1;jettySize=auto;html=1;entryX=0.5;entryY=0;entryDx=0;entryDy=0;" edge="1" parent="1" source="aZiC9IOcHN_K4GmecqXq-75" target="aZiC9IOcHN_K4GmecqXq-77">
          <mxGeometry relative="1" as="geometry" />
        </mxCell>
        <mxCell id="aZiC9IOcHN_K4GmecqXq-95" style="edgeStyle=orthogonalEdgeStyle;rounded=0;orthogonalLoop=1;jettySize=auto;html=1;exitX=1;exitY=0.5;exitDx=0;exitDy=0;entryX=0;entryY=0.5;entryDx=0;entryDy=0;" edge="1" parent="1" source="aZiC9IOcHN_K4GmecqXq-75" target="aZiC9IOcHN_K4GmecqXq-80">
          <mxGeometry relative="1" as="geometry">
            <mxPoint x="2280" y="175" as="targetPoint" />
          </mxGeometry>
        </mxCell>
        <mxCell id="aZiC9IOcHN_K4GmecqXq-96" style="edgeStyle=orthogonalEdgeStyle;rounded=0;orthogonalLoop=1;jettySize=auto;html=1;entryX=0.5;entryY=0;entryDx=0;entryDy=0;" edge="1" parent="1" target="aZiC9IOcHN_K4GmecqXq-86">
          <mxGeometry relative="1" as="geometry">
            <mxPoint x="1785" y="275" as="sourcePoint" />
          </mxGeometry>
        </mxCell>
        <mxCell id="aZiC9IOcHN_K4GmecqXq-112" style="edgeStyle=orthogonalEdgeStyle;rounded=0;orthogonalLoop=1;jettySize=auto;html=1;exitX=0.75;exitY=1;exitDx=0;exitDy=0;" edge="1" parent="1" source="aZiC9IOcHN_K4GmecqXq-75">
          <mxGeometry relative="1" as="geometry">
            <mxPoint x="1990" y="942.400146484375" as="targetPoint" />
          </mxGeometry>
        </mxCell>
        <mxCell id="aZiC9IOcHN_K4GmecqXq-75" value="&lt;font style=&quot;font-size: 18px;&quot;&gt;User&amp;nbsp; { Role : Admin }&lt;/font&gt;" style="swimlane;whiteSpace=wrap;html=1;startSize=23;" vertex="1" parent="1">
          <mxGeometry x="1750" y="75" width="320" height="200" as="geometry" />
        </mxCell>
        <mxCell id="aZiC9IOcHN_K4GmecqXq-76" value="Actor" style="shape=umlActor;verticalLabelPosition=bottom;verticalAlign=top;html=1;outlineConnect=0;" vertex="1" parent="aZiC9IOcHN_K4GmecqXq-75">
          <mxGeometry x="92.5" y="50" width="75" height="120" as="geometry" />
        </mxCell>
        <mxCell id="aZiC9IOcHN_K4GmecqXq-77" value="&lt;font style=&quot;font-size: 18px;&quot;&gt;User&amp;nbsp; { Role : Passanger }&lt;/font&gt;" style="swimlane;whiteSpace=wrap;html=1;startSize=23;" vertex="1" parent="1">
          <mxGeometry x="1280" y="460" width="260" height="200" as="geometry" />
        </mxCell>
        <mxCell id="aZiC9IOcHN_K4GmecqXq-78" value="Actor" style="shape=umlActor;verticalLabelPosition=bottom;verticalAlign=top;html=1;outlineConnect=0;" vertex="1" parent="aZiC9IOcHN_K4GmecqXq-77">
          <mxGeometry x="92.5" y="50" width="75" height="120" as="geometry" />
        </mxCell>
        <mxCell id="aZiC9IOcHN_K4GmecqXq-80" value="&lt;font style=&quot;font-size: 18px;&quot;&gt;Trips&lt;/font&gt;" style="swimlane;whiteSpace=wrap;html=1;startSize=23;" vertex="1" parent="1">
          <mxGeometry x="2360" y="70" width="200" height="200" as="geometry" />
        </mxCell>
        <mxCell id="aZiC9IOcHN_K4GmecqXq-81" value="&lt;font style=&quot;font-size: 18px;&quot;&gt;Prize&lt;/font&gt;" style="text;html=1;align=center;verticalAlign=middle;resizable=0;points=[];autosize=1;strokeColor=none;fillColor=none;" vertex="1" parent="aZiC9IOcHN_K4GmecqXq-80">
          <mxGeometry x="40" y="40" width="60" height="40" as="geometry" />
        </mxCell>
        <mxCell id="aZiC9IOcHN_K4GmecqXq-82" value="&lt;font style=&quot;font-size: 18px;&quot;&gt;Destination&lt;/font&gt;" style="text;html=1;align=center;verticalAlign=middle;resizable=0;points=[];autosize=1;strokeColor=none;fillColor=none;" vertex="1" parent="aZiC9IOcHN_K4GmecqXq-80">
          <mxGeometry x="40" y="80" width="110" height="40" as="geometry" />
        </mxCell>
        <mxCell id="aZiC9IOcHN_K4GmecqXq-83" value="&lt;font style=&quot;font-size: 18px;&quot;&gt;Date &amp;amp; Time&lt;/font&gt;" style="text;html=1;align=center;verticalAlign=middle;resizable=0;points=[];autosize=1;strokeColor=none;fillColor=none;" vertex="1" parent="aZiC9IOcHN_K4GmecqXq-80">
          <mxGeometry x="40" y="120" width="120" height="40" as="geometry" />
        </mxCell>
        <mxCell id="aZiC9IOcHN_K4GmecqXq-86" value="&lt;font style=&quot;font-size: 18px;&quot;&gt;Booking&amp;nbsp; { Manual/ Gateway }&lt;/font&gt;" style="swimlane;whiteSpace=wrap;html=1;startSize=23;" vertex="1" parent="1">
          <mxGeometry x="1630" y="460" width="310" height="280" as="geometry" />
        </mxCell>
        <mxCell id="aZiC9IOcHN_K4GmecqXq-87" value="&lt;font style=&quot;font-size: 18px;&quot;&gt;Trip_id&lt;/font&gt;" style="text;html=1;align=center;verticalAlign=middle;resizable=0;points=[];autosize=1;strokeColor=none;fillColor=none;" vertex="1" parent="aZiC9IOcHN_K4GmecqXq-86">
          <mxGeometry x="40" y="40" width="80" height="40" as="geometry" />
        </mxCell>
        <mxCell id="aZiC9IOcHN_K4GmecqXq-88" value="&lt;font style=&quot;font-size: 18px;&quot;&gt;User_id&lt;/font&gt;" style="text;html=1;align=center;verticalAlign=middle;resizable=0;points=[];autosize=1;strokeColor=none;fillColor=none;" vertex="1" parent="aZiC9IOcHN_K4GmecqXq-86">
          <mxGeometry x="40" y="80" width="90" height="40" as="geometry" />
        </mxCell>
        <mxCell id="aZiC9IOcHN_K4GmecqXq-89" value="&lt;span style=&quot;font-size: 18px;&quot;&gt;proof URL ?&lt;/span&gt;" style="text;html=1;align=center;verticalAlign=middle;resizable=0;points=[];autosize=1;strokeColor=none;fillColor=none;" vertex="1" parent="aZiC9IOcHN_K4GmecqXq-86">
          <mxGeometry x="40" y="120" width="120" height="40" as="geometry" />
        </mxCell>
        <mxCell id="aZiC9IOcHN_K4GmecqXq-90" value="&lt;font style=&quot;font-size: 18px;&quot;&gt;Status&lt;/font&gt;" style="text;html=1;align=center;verticalAlign=middle;resizable=0;points=[];autosize=1;strokeColor=none;fillColor=none;" vertex="1" parent="aZiC9IOcHN_K4GmecqXq-86">
          <mxGeometry x="45" y="210" width="70" height="40" as="geometry" />
        </mxCell>
        <mxCell id="aZiC9IOcHN_K4GmecqXq-93" value="&lt;font style=&quot;font-size: 18px;&quot;&gt;payment_id ?&lt;/font&gt;" style="text;html=1;align=center;verticalAlign=middle;resizable=0;points=[];autosize=1;strokeColor=none;fillColor=none;" vertex="1" parent="aZiC9IOcHN_K4GmecqXq-86">
          <mxGeometry x="40" y="163" width="130" height="40" as="geometry" />
        </mxCell>
        <mxCell id="aZiC9IOcHN_K4GmecqXq-97" value="&lt;font style=&quot;font-size: 18px;&quot;&gt;Admin Dashboard&lt;/font&gt;" style="swimlane;whiteSpace=wrap;html=1;startSize=23;" vertex="1" parent="1">
          <mxGeometry x="2130" y="470" width="200" height="270" as="geometry" />
        </mxCell>
        <mxCell id="aZiC9IOcHN_K4GmecqXq-98" value="&lt;font style=&quot;font-size: 18px;&quot;&gt;Revenue&lt;/font&gt;" style="text;html=1;align=center;verticalAlign=middle;resizable=0;points=[];autosize=1;strokeColor=none;fillColor=none;" vertex="1" parent="aZiC9IOcHN_K4GmecqXq-97">
          <mxGeometry x="20" y="40" width="100" height="40" as="geometry" />
        </mxCell>
        <mxCell id="aZiC9IOcHN_K4GmecqXq-99" value="&lt;font style=&quot;font-size: 18px;&quot;&gt;Users&lt;/font&gt;" style="text;html=1;align=center;verticalAlign=middle;resizable=0;points=[];autosize=1;strokeColor=none;fillColor=none;" vertex="1" parent="aZiC9IOcHN_K4GmecqXq-97">
          <mxGeometry x="20" y="80" width="70" height="40" as="geometry" />
        </mxCell>
        <mxCell id="aZiC9IOcHN_K4GmecqXq-100" value="&lt;font style=&quot;font-size: 18px;&quot;&gt;Booked Users&lt;/font&gt;" style="text;html=1;align=center;verticalAlign=middle;resizable=0;points=[];autosize=1;strokeColor=none;fillColor=none;" vertex="1" parent="aZiC9IOcHN_K4GmecqXq-97">
          <mxGeometry x="20" y="120" width="140" height="40" as="geometry" />
        </mxCell>
        <mxCell id="aZiC9IOcHN_K4GmecqXq-111" value="&lt;font style=&quot;font-size: 18px;&quot;&gt;Active Trips&lt;/font&gt;" style="text;html=1;align=center;verticalAlign=middle;resizable=0;points=[];autosize=1;strokeColor=none;fillColor=none;" vertex="1" parent="aZiC9IOcHN_K4GmecqXq-97">
          <mxGeometry x="20" y="160" width="120" height="40" as="geometry" />
        </mxCell>
        <mxCell id="aZiC9IOcHN_K4GmecqXq-101" style="edgeStyle=orthogonalEdgeStyle;rounded=0;orthogonalLoop=1;jettySize=auto;html=1;exitX=1;exitY=0.75;exitDx=0;exitDy=0;entryX=0.467;entryY=0.004;entryDx=0;entryDy=0;entryPerimeter=0;" edge="1" parent="1" source="aZiC9IOcHN_K4GmecqXq-75" target="aZiC9IOcHN_K4GmecqXq-97">
          <mxGeometry relative="1" as="geometry" />
        </mxCell>
        <mxCell id="aZiC9IOcHN_K4GmecqXq-102" value="&lt;font style=&quot;font-size: 18px;&quot;&gt;GET /admin_dashboard&lt;/font&gt;" style="text;html=1;align=center;verticalAlign=middle;resizable=0;points=[];autosize=1;strokeColor=none;fillColor=none;" vertex="1" parent="1">
          <mxGeometry x="2240" y="420" width="210" height="40" as="geometry" />
        </mxCell>
        <mxCell id="aZiC9IOcHN_K4GmecqXq-103" value="&lt;font style=&quot;font-size: 14px;&quot;&gt;PUT /trips&lt;/font&gt;&lt;div&gt;&lt;font size=&quot;3&quot; style=&quot;&quot;&gt;&amp;nbsp; &amp;nbsp; &amp;nbsp; &amp;nbsp; DELETE /trips&lt;/font&gt;&lt;/div&gt;&lt;div&gt;&lt;span style=&quot;background-color: transparent; color: light-dark(rgb(0, 0, 0), rgb(255, 255, 255));&quot;&gt;&lt;font size=&quot;3&quot;&gt;&amp;nbsp;GET /trips&lt;/font&gt;&lt;/span&gt;&lt;/div&gt;&lt;div&gt;&lt;font size=&quot;3&quot; style=&quot;&quot;&gt;&amp;nbsp; &amp;nbsp;POST /trips&lt;/font&gt;&lt;/div&gt;" style="text;html=1;align=center;verticalAlign=middle;resizable=0;points=[];autosize=1;strokeColor=none;fillColor=none;" vertex="1" parent="1">
          <mxGeometry x="2200" y="75" width="160" height="90" as="geometry" />
        </mxCell>
        <mxCell id="aZiC9IOcHN_K4GmecqXq-104" value="&lt;font style=&quot;font-size: 36px;&quot;&gt;ADMIN&amp;nbsp; &amp;nbsp;PANEL&lt;/font&gt;" style="text;html=1;align=center;verticalAlign=middle;resizable=0;points=[];autosize=1;strokeColor=none;fillColor=none;" vertex="1" parent="1">
          <mxGeometry x="1790" y="-60" width="280" height="60" as="geometry" />
        </mxCell>
        <mxCell id="aZiC9IOcHN_K4GmecqXq-105" value="&lt;font style=&quot;font-size: 36px;&quot;&gt;PASSANGER&amp;nbsp; &amp;nbsp;PANEL&lt;/font&gt;" style="text;html=1;align=center;verticalAlign=middle;resizable=0;points=[];autosize=1;strokeColor=none;fillColor=none;" vertex="1" parent="1">
          <mxGeometry x="260" y="-80" width="390" height="60" as="geometry" />
        </mxCell>
        <mxCell id="aZiC9IOcHN_K4GmecqXq-107" value="&lt;span style=&quot;color: rgba(0, 0, 0, 0); font-family: monospace; font-size: 0px; text-align: start;&quot;&gt;%3CmxGraphModel%3E%3Croot%3E%3CmxCell%20id%3D%220%22%2F%3E%3CmxCell%20id%3D%221%22%20parent%3D%220%22%2F%3E%3CmxCell%20id%3D%222%22%20value%3D%22%26lt%3Bfont%20style%3D%26quot%3Bfont-size%3A%2014px%3B%26quot%3B%26gt%3BPUT%20%2Ftrips%26lt%3B%2Ffont%26gt%3B%26lt%3Bdiv%26gt%3B%26lt%3Bfont%20size%3D%26quot%3B3%26quot%3B%20style%3D%26quot%3B%26quot%3B%26gt%3B%26amp%3Bnbsp%3B%20%26amp%3Bnbsp%3B%20%26amp%3Bnbsp%3B%20%26amp%3Bnbsp%3B%20DELETE%20%2Ftrips%26lt%3B%2Ffont%26gt%3B%26lt%3B%2Fdiv%26gt%3B%26lt%3Bdiv%26gt%3B%26lt%3Bspan%20style%3D%26quot%3Bbackground-color%3A%20transparent%3B%20color%3A%20light-dark(rgb(0%2C%200%2C%200)%2C%20rgb(255%2C%20255%2C%20255))%3B%26quot%3B%26gt%3B%26lt%3Bfont%20size%3D%26quot%3B3%26quot%3B%26gt%3B%26amp%3Bnbsp%3BGET%20%2Ftrips%26lt%3B%2Ffont%26gt%3B%26lt%3B%2Fspan%26gt%3B%26lt%3B%2Fdiv%26gt%3B%26lt%3Bdiv%26gt%3B%26lt%3Bfont%20size%3D%26quot%3B3%26quot%3B%20style%3D%26quot%3B%26quot%3B%26gt%3B%26amp%3Bnbsp%3B%20%26amp%3Bnbsp%3BPOST%20%2Ftrips%26lt%3B%2Ffont%26gt%3B%26lt%3B%2Fdiv%26gt%3B%22%20style%3D%22text%3Bhtml%3D1%3Balign%3Dcenter%3BverticalAlign%3Dmiddle%3Bresizable%3D0%3Bpoints%3D%5B%5D%3Bautosize%3D1%3BstrokeColor%3Dnone%3BfillColor%3Dnone%3B%22%20vertex%3D%221%22%20parent%3D%221%22%3E%3CmxGeometry%20x%3D%222085%22%20y%3D%2275%22%20width%3D%22160%22%20height%3D%2290%22%20as%3D%22geometry%22%2F%3E%3C%2FmxCell%3E%3C%2Froot%3E%3C%2FmxGraphModel%3E&lt;/span&gt;" style="text;html=1;align=center;verticalAlign=middle;resizable=0;points=[];autosize=1;strokeColor=none;fillColor=none;" vertex="1" parent="1">
          <mxGeometry x="1820" y="398" width="20" height="30" as="geometry" />
        </mxCell>
        <mxCell id="aZiC9IOcHN_K4GmecqXq-108" value="&lt;font style=&quot;font-size: 14px;&quot;&gt;PUT /booking&lt;/font&gt;&lt;div&gt;&lt;font size=&quot;3&quot; style=&quot;&quot;&gt;&amp;nbsp; &amp;nbsp; &amp;nbsp; &amp;nbsp; DELETE /&lt;/font&gt;&lt;span style=&quot;font-size: 14px; background-color: transparent; color: light-dark(rgb(0, 0, 0), rgb(255, 255, 255));&quot;&gt;booking&lt;/span&gt;&lt;/div&gt;&lt;div&gt;&lt;span style=&quot;background-color: transparent; color: light-dark(rgb(0, 0, 0), rgb(255, 255, 255));&quot;&gt;&lt;font size=&quot;3&quot;&gt;&amp;nbsp;GET /&lt;/font&gt;&lt;/span&gt;&lt;span style=&quot;font-size: 14px; background-color: transparent; color: light-dark(rgb(0, 0, 0), rgb(255, 255, 255));&quot;&gt;booking&lt;/span&gt;&lt;/div&gt;&lt;div&gt;&lt;font size=&quot;3&quot; style=&quot;&quot;&gt;&amp;nbsp; &amp;nbsp;POST /&lt;/font&gt;&lt;span style=&quot;font-size: 14px; background-color: transparent; color: light-dark(rgb(0, 0, 0), rgb(255, 255, 255));&quot;&gt;booking&lt;/span&gt;&lt;/div&gt;" style="text;html=1;align=center;verticalAlign=middle;resizable=0;points=[];autosize=1;strokeColor=none;fillColor=none;" vertex="1" parent="1">
          <mxGeometry x="1750" y="360" width="180" height="90" as="geometry" />
        </mxCell>
        <mxCell id="aZiC9IOcHN_K4GmecqXq-109" value="&lt;font style=&quot;font-size: 14px;&quot;&gt;PUT /user&lt;/font&gt;&lt;div&gt;&lt;font size=&quot;3&quot; style=&quot;&quot;&gt;&amp;nbsp; &amp;nbsp; &amp;nbsp; &amp;nbsp; DELETE /&lt;/font&gt;&lt;span style=&quot;font-size: 14px; background-color: transparent; color: light-dark(rgb(0, 0, 0), rgb(255, 255, 255));&quot;&gt;user&lt;/span&gt;&lt;/div&gt;&lt;div&gt;&lt;span style=&quot;background-color: transparent; color: light-dark(rgb(0, 0, 0), rgb(255, 255, 255));&quot;&gt;&lt;font size=&quot;3&quot;&gt;&amp;nbsp;GET /&lt;/font&gt;&lt;/span&gt;&lt;span style=&quot;font-size: 14px; background-color: transparent; color: light-dark(rgb(0, 0, 0), rgb(255, 255, 255));&quot;&gt;user&lt;/span&gt;&lt;/div&gt;&lt;div&gt;&lt;font size=&quot;3&quot; style=&quot;&quot;&gt;&amp;nbsp; &amp;nbsp;POST /&lt;/font&gt;&lt;span style=&quot;font-size: 14px; background-color: transparent; color: light-dark(rgb(0, 0, 0), rgb(255, 255, 255));&quot;&gt;user&lt;/span&gt;&lt;/div&gt;" style="text;html=1;align=center;verticalAlign=middle;resizable=0;points=[];autosize=1;strokeColor=none;fillColor=none;" vertex="1" parent="1">
          <mxGeometry x="1400" y="360" width="160" height="90" as="geometry" />
        </mxCell>
        <mxCell id="aZiC9IOcHN_K4GmecqXq-113" value="&lt;font style=&quot;font-size: 18px;&quot;&gt;Booked Usrs&lt;/font&gt;" style="swimlane;whiteSpace=wrap;html=1;startSize=23;" vertex="1" parent="1">
          <mxGeometry x="1900" y="940" width="200" height="270" as="geometry" />
        </mxCell>
        <mxCell id="aZiC9IOcHN_K4GmecqXq-114" value="&lt;font style=&quot;font-size: 18px;&quot;&gt;User_id&lt;/font&gt;" style="text;html=1;align=center;verticalAlign=middle;resizable=0;points=[];autosize=1;strokeColor=none;fillColor=none;" vertex="1" parent="aZiC9IOcHN_K4GmecqXq-113">
          <mxGeometry x="25" y="40" width="90" height="40" as="geometry" />
        </mxCell>
        <mxCell id="aZiC9IOcHN_K4GmecqXq-115" value="&lt;font style=&quot;font-size: 18px;&quot;&gt;&amp;nbsp; Trip_id&lt;/font&gt;" style="text;html=1;align=center;verticalAlign=middle;resizable=0;points=[];autosize=1;strokeColor=none;fillColor=none;" vertex="1" parent="aZiC9IOcHN_K4GmecqXq-113">
          <mxGeometry x="10" y="80" width="90" height="40" as="geometry" />
        </mxCell>
        <mxCell id="aZiC9IOcHN_K4GmecqXq-116" value="&lt;font style=&quot;font-size: 18px;&quot;&gt;Payment_id&lt;/font&gt;" style="text;html=1;align=center;verticalAlign=middle;resizable=0;points=[];autosize=1;strokeColor=none;fillColor=none;" vertex="1" parent="aZiC9IOcHN_K4GmecqXq-113">
          <mxGeometry x="20" y="120" width="120" height="40" as="geometry" />
        </mxCell>
        <mxCell id="aZiC9IOcHN_K4GmecqXq-117" value="&lt;span style=&quot;font-size: 18px;&quot;&gt;payment Status&lt;/span&gt;" style="text;html=1;align=center;verticalAlign=middle;resizable=0;points=[];autosize=1;strokeColor=none;fillColor=none;" vertex="1" parent="aZiC9IOcHN_K4GmecqXq-113">
          <mxGeometry x="20" y="160" width="150" height="40" as="geometry" />
        </mxCell>
        <mxCell id="aZiC9IOcHN_K4GmecqXq-118" value="&lt;font style=&quot;font-size: 14px;&quot;&gt;PUT&amp;nbsp; &amp;nbsp; /booked_user&lt;/font&gt;&lt;div&gt;&lt;font size=&quot;3&quot; style=&quot;&quot;&gt;&amp;nbsp; &amp;nbsp; &amp;nbsp; &amp;nbsp; DELETE&amp;nbsp; &amp;nbsp; /&lt;/font&gt;&lt;span style=&quot;font-size: 14px; background-color: transparent; color: light-dark(rgb(0, 0, 0), rgb(255, 255, 255));&quot;&gt;booked_user&lt;/span&gt;&lt;/div&gt;&lt;div&gt;&lt;span style=&quot;background-color: transparent; color: light-dark(rgb(0, 0, 0), rgb(255, 255, 255));&quot;&gt;&lt;font size=&quot;3&quot;&gt;&amp;nbsp;GET&amp;nbsp; &amp;nbsp;/&lt;/font&gt;&lt;/span&gt;&lt;span style=&quot;font-size: 14px; background-color: transparent; color: light-dark(rgb(0, 0, 0), rgb(255, 255, 255));&quot;&gt;booked_user&lt;/span&gt;&lt;/div&gt;&lt;div&gt;&lt;font size=&quot;3&quot; style=&quot;&quot;&gt;&amp;nbsp; &amp;nbsp;POST&amp;nbsp; &amp;nbsp;/&lt;/font&gt;&lt;span style=&quot;font-size: 14px; background-color: transparent; color: light-dark(rgb(0, 0, 0), rgb(255, 255, 255));&quot;&gt;booked_user&lt;/span&gt;&lt;/div&gt;" style="text;html=1;align=center;verticalAlign=middle;resizable=0;points=[];autosize=1;strokeColor=none;fillColor=none;" vertex="1" parent="1">
          <mxGeometry x="1960" y="850" width="220" height="90" as="geometry" />
        </mxCell>
        <mxCell id="aZiC9IOcHN_K4GmecqXq-119" value="" style="ellipse;html=1;shape=endState;fillColor=#000000;strokeColor=#ff0000;" vertex="1" parent="1">
          <mxGeometry x="885" y="1190" width="110" height="100" as="geometry" />
        </mxCell>
        <mxCell id="aZiC9IOcHN_K4GmecqXq-122" value="&lt;font style=&quot;font-size: 14px;&quot;&gt;END OF Execution&lt;/font&gt;" style="text;html=1;align=center;verticalAlign=middle;resizable=0;points=[];autosize=1;strokeColor=none;fillColor=none;" vertex="1" parent="1">
          <mxGeometry x="950" y="1150" width="140" height="30" as="geometry" />
        </mxCell>
      </root>
    </mxGraphModel>
  </diagram>
</mxfile>
